<svg width="76" height="76" viewBox="0 0 76 76" fill="none" xmlns="http://www.w3.org/2000/svg">
<rect width="76" height="76" rx="20" fill="#254152"/>
<path d="M50.9134 42.236H40.6914C40.4193 42.236 40.1992 42.0159 40.1992 41.7438C40.1992 41.4717 40.4193 41.2516 40.6914 41.2516H50.4205V38.3555H41.1836V39.1957C41.1836 39.4678 40.9635 39.6879 40.6914 39.6879C40.4193 39.6879 40.1992 39.4678 40.1992 39.1957V37.8633C40.1992 37.5912 40.4193 37.3711 40.6914 37.3711H50.9127C51.1848 37.3711 51.4049 37.5912 51.4049 37.8633V41.7438C51.4056 42.0152 51.1848 42.236 50.9134 42.236Z" fill="white"/>
<path d="M35.308 42.236H25.0859C24.8138 42.236 24.5938 42.0159 24.5938 41.7438V37.8633C24.5938 37.5912 24.8138 37.3711 25.0859 37.3711H28.9918C29.2639 37.3711 29.484 37.5912 29.484 37.8633C29.484 38.1354 29.2639 38.3555 28.9918 38.3555H25.5781V41.2516H34.8151V38.3555H32.127C31.8549 38.3555 31.6348 38.1354 31.6348 37.8633C31.6348 37.5912 31.8549 37.3711 32.127 37.3711H35.3073C35.5794 37.3711 35.7995 37.5912 35.7995 37.8633V41.7438C35.8002 42.0152 35.5794 42.236 35.308 42.236Z" fill="white"/>
<path d="M50.9134 48.7116H40.6914C40.4193 48.7116 40.1992 48.4915 40.1992 48.2194V44.3389C40.1992 44.0668 40.4193 43.8467 40.6914 43.8467H50.9127C51.1848 43.8467 51.4049 44.0668 51.4049 44.3389V48.2194C51.4056 48.4915 51.1848 48.7116 50.9134 48.7116ZM41.1836 47.7272H50.4205V44.8311H41.1836V47.7272Z" fill="white"/>
<path d="M35.308 48.7116C35.0359 48.7116 34.8158 48.4915 34.8158 48.2194V44.8311H25.5781V47.7272H33.1002C33.3723 47.7272 33.5923 47.9473 33.5923 48.2194C33.5923 48.4915 33.3723 48.7116 33.1002 48.7116H25.0859C24.8138 48.7116 24.5938 48.4915 24.5938 48.2194V44.3389C24.5938 44.0668 24.8138 43.8467 25.0859 43.8467H35.3073C35.5794 43.8467 35.7995 44.0668 35.7995 44.3389V48.2194C35.8002 48.4915 35.5794 48.7116 35.308 48.7116Z" fill="white"/>
<path d="M50.9131 51.9462H25.0859C24.8138 51.9462 24.5938 51.7262 24.5938 51.4541V35.7758C24.5938 35.6197 24.6676 35.4727 24.7934 35.3799C26.8606 33.852 28.0946 31.4059 28.0946 28.8352V24.5469C28.0946 24.2748 28.3147 24.0547 28.5868 24.0547H32.5686C32.8407 24.0547 33.0608 24.2748 33.0608 24.5469C33.0608 27.2701 35.2763 29.4863 38.0002 29.4863C39.9275 29.4863 41.6916 28.3536 42.4939 26.6C42.6071 26.3525 42.8989 26.2442 43.1464 26.3574C43.3939 26.4706 43.5022 26.7624 43.389 27.0099C42.4264 29.1123 40.3114 30.4714 38.0002 30.4714C34.8995 30.4714 32.3478 28.0773 32.0968 25.0398H29.079V28.8359C29.079 31.6337 27.7754 34.2999 25.5788 36.0205V50.9626H50.4209V36.0198C49.3691 35.195 48.4993 34.1368 47.8981 32.9443C47.259 31.6759 46.9208 30.2548 46.9208 28.8359V25.0391H43.4312C43.1591 25.0391 42.939 24.819 42.939 24.5469C42.939 24.2748 43.1591 24.0547 43.4312 24.0547H47.413C47.6851 24.0547 47.9052 24.2748 47.9052 24.5469V28.8352C47.9052 30.1016 48.2068 31.3686 48.777 32.5006C49.3473 33.6305 50.1875 34.6262 51.2063 35.3799C51.3315 35.4727 51.406 35.6197 51.406 35.7758V51.4541C51.4053 51.7262 51.1845 51.9462 50.9131 51.9462Z" fill="white"/>
<path d="M38 51.946C37.7279 51.946 37.5078 51.7259 37.5078 51.4538V29.9775C37.5078 29.7054 37.7279 29.4854 38 29.4854C38.2721 29.4854 38.4922 29.7054 38.4922 29.9775V51.4538C38.4922 51.7259 38.2721 51.946 38 51.946Z" fill="white"/>
<path d="M30.5234 38.3558C30.4911 38.3558 30.4588 38.3523 30.4271 38.346C30.3962 38.3397 30.3652 38.3298 30.335 38.3179C30.3055 38.3052 30.2766 38.2904 30.2499 38.2729C30.2232 38.2546 30.1979 38.2342 30.1754 38.2117C30.084 38.1196 30.0312 37.993 30.0312 37.8636C30.0312 37.8313 30.0348 37.7989 30.0411 37.7673C30.0474 37.7357 30.0566 37.7047 30.0692 37.6752C30.0812 37.6457 30.0966 37.6168 30.1142 37.5901C30.1318 37.5634 30.1529 37.5381 30.1754 37.5156C30.1979 37.4924 30.2232 37.472 30.2499 37.4544C30.2766 37.4361 30.3055 37.4214 30.335 37.4087C30.3652 37.3968 30.3962 37.3869 30.4271 37.3806C30.4911 37.3679 30.5558 37.3679 30.6198 37.3806C30.6507 37.3869 30.6823 37.3968 30.7119 37.4087C30.7414 37.4214 30.7702 37.4361 30.797 37.4544C30.8237 37.472 30.849 37.4924 30.8715 37.5156C30.9629 37.607 31.0156 37.7343 31.0156 37.8636C31.0156 37.993 30.9629 38.1196 30.8715 38.2117C30.849 38.2342 30.8237 38.2546 30.797 38.2729C30.7702 38.2904 30.7414 38.3052 30.7119 38.3179C30.6823 38.3298 30.6507 38.3397 30.6198 38.346C30.5881 38.3523 30.5558 38.3558 30.5234 38.3558Z" fill="white"/>
<path d="M44.456 34.2285H41.4248C41.1527 34.2285 40.9326 34.0084 40.9326 33.7363C40.9326 33.4642 41.1527 33.2441 41.4248 33.2441H44.456C44.7281 33.2441 44.9482 33.4642 44.9482 33.7363C44.9482 34.0084 44.7274 34.2285 44.456 34.2285Z" fill="white"/>
<path d="M31.6055 34.2285C31.4754 34.2285 31.3488 34.1758 31.2574 34.0844C31.1653 33.9922 31.1133 33.8657 31.1133 33.7363C31.1133 33.6062 31.1653 33.4797 31.2574 33.3883C31.3713 33.2737 31.5422 33.2216 31.7011 33.2533C31.7327 33.2596 31.7637 33.2694 31.7932 33.2814C31.8234 33.294 31.8516 33.3088 31.8783 33.3271C31.905 33.3447 31.9303 33.3651 31.9535 33.3883C32.0449 33.4797 32.0977 33.6069 32.0977 33.7363C32.0977 33.8657 32.0449 33.9922 31.9535 34.0844C31.9303 34.1069 31.905 34.1272 31.8783 34.1455C31.8516 34.1631 31.8234 34.1786 31.7932 34.1905C31.7637 34.2032 31.7327 34.2123 31.7011 34.2187C31.6695 34.225 31.6371 34.2285 31.6055 34.2285Z" fill="white"/>
<path d="M33.4697 34.2285C33.4374 34.2285 33.405 34.225 33.3734 34.2187C33.3418 34.2123 33.3108 34.2032 33.2813 34.1905C33.2518 34.1786 33.2229 34.1631 33.1962 34.1455C33.1695 34.1272 33.1442 34.1069 33.1217 34.0844C33.0992 34.0612 33.0781 34.0365 33.0605 34.0091C33.0429 33.9824 33.0275 33.9543 33.0155 33.924C33.0029 33.8945 32.9937 33.8636 32.9874 33.8319C32.9811 33.8003 32.9775 33.768 32.9775 33.7363C32.9775 33.6062 33.0303 33.4797 33.1217 33.3883C33.1442 33.3651 33.1695 33.3447 33.1962 33.3271C33.2229 33.3088 33.2518 33.294 33.2813 33.2814C33.3108 33.2694 33.3418 33.2596 33.3734 33.2533C33.5337 33.2216 33.7032 33.2737 33.8178 33.3883C33.9092 33.4797 33.9619 33.6062 33.9619 33.7363C33.9619 33.768 33.9584 33.8003 33.9521 33.8319C33.9457 33.8636 33.9366 33.8945 33.9239 33.924C33.912 33.9543 33.8965 33.9824 33.8789 34.0091C33.8607 34.0365 33.8403 34.0612 33.8178 34.0844C33.7953 34.1069 33.77 34.1272 33.7425 34.1455C33.7165 34.1631 33.6877 34.1786 33.6582 34.1905C33.6279 34.2032 33.597 34.2123 33.5661 34.2187C33.5344 34.225 33.5021 34.2285 33.4697 34.2285Z" fill="white"/>
<path d="M35.3076 34.2279C35.2753 34.2279 35.2429 34.2244 35.2113 34.2181C35.1796 34.2117 35.1487 34.2026 35.1192 34.1899C35.0896 34.178 35.0608 34.1625 35.0341 34.1449C35.0074 34.1266 34.9821 34.1063 34.9596 34.0838C34.8675 33.9916 34.8154 33.8651 34.8154 33.7357C34.8154 33.6056 34.8675 33.4791 34.9596 33.3877C34.9821 33.3645 35.0074 33.3441 35.0341 33.3265C35.0608 33.3082 35.0896 33.2934 35.1192 33.2808C35.1487 33.2688 35.1796 33.259 35.2113 33.2527C35.2746 33.24 35.34 33.24 35.4039 33.2527C35.4349 33.259 35.4658 33.2688 35.4954 33.2808C35.5256 33.2934 35.5537 33.3082 35.5804 33.3265C35.6079 33.3441 35.6325 33.3645 35.6557 33.3877C35.7471 33.4791 35.7998 33.6056 35.7998 33.7357C35.7998 33.8651 35.7471 33.9916 35.6557 34.0838C35.6325 34.1063 35.6079 34.1266 35.5804 34.1449C35.5537 34.1625 35.5256 34.178 35.4954 34.1899C35.4658 34.2026 35.4349 34.2117 35.4039 34.2181C35.3716 34.2244 35.3393 34.2279 35.3076 34.2279Z" fill="white"/>
</svg>
