<svg width="76" height="76" viewBox="0 0 76 76" fill="none" xmlns="http://www.w3.org/2000/svg">
<rect width="76" height="76" rx="20" fill="#254152"/>
<path d="M38.2578 50.1118C37.9857 50.1118 37.7656 49.8918 37.7656 49.6196C37.7656 49.3475 37.9857 49.1275 38.2578 49.1275C40.202 49.1275 42.0294 48.3702 43.4047 46.9949L47.3309 43.0686C48.1128 42.2867 48.1128 41.0148 47.3309 40.2329L46.066 38.968C45.8741 38.776 45.8741 38.4638 46.066 38.2719C46.258 38.0799 46.5702 38.0799 46.7621 38.2719L48.027 39.5368C49.1928 40.7026 49.1928 42.5989 48.027 43.7647L44.1008 47.691C42.5391 49.2519 40.4642 50.1118 38.2578 50.1118Z" fill="white"/>
<path d="M45.2256 37.9234C45.0962 37.9234 44.9689 37.8706 44.8775 37.7792C44.855 37.7567 44.8339 37.7314 44.8164 37.7047C44.7988 37.678 44.7833 37.6492 44.7714 37.6196C44.7587 37.5901 44.7496 37.5592 44.7432 37.5275C44.7369 37.4959 44.7334 37.4635 44.7334 37.4312C44.7334 37.3988 44.7369 37.3665 44.7432 37.3349C44.7496 37.3039 44.7587 37.273 44.7714 37.2428C44.7833 37.2132 44.7988 37.1844 44.8164 37.1577C44.8339 37.131 44.855 37.1056 44.8775 37.0831C44.9921 36.9692 45.1616 36.9165 45.3219 36.9488C45.3529 36.9552 45.3845 36.9643 45.414 36.977C45.4436 36.9889 45.4724 37.0044 45.4991 37.022C45.5258 37.0403 45.5511 37.0606 45.5736 37.0831C45.5961 37.1056 45.6165 37.131 45.6348 37.1577C45.6524 37.1844 45.6679 37.2132 45.6798 37.2428C45.6925 37.273 45.7016 37.3039 45.7079 37.3349C45.7143 37.3665 45.7178 37.3988 45.7178 37.4312C45.7178 37.4635 45.7143 37.4959 45.7079 37.5275C45.7016 37.5592 45.6925 37.5901 45.6798 37.6196C45.6679 37.6492 45.6524 37.678 45.6348 37.7047C45.6165 37.7314 45.5961 37.7567 45.5736 37.7792C45.5511 37.8017 45.5258 37.8228 45.4991 37.8404C45.4724 37.858 45.4436 37.8735 45.414 37.8854C45.3845 37.8981 45.3529 37.9072 45.3219 37.9135C45.2903 37.9199 45.2579 37.9234 45.2256 37.9234Z" fill="white"/>
<path d="M36.5474 51.8204C36.4216 51.8204 36.2957 51.7726 36.1994 51.6762L30.7973 46.2741C30.6053 46.0822 30.6053 45.77 30.7973 45.578L32.6613 43.714V40.145C32.6613 39.7611 32.811 39.4004 33.0824 39.129L36.2465 35.9649C36.5179 35.6935 36.8786 35.5437 37.2625 35.5437H38.6434L39.2249 34.9622C39.2734 34.9137 39.3184 34.8715 39.3635 34.8329C40.5433 33.7915 42.3384 33.8485 43.4528 34.9622L44.5026 36.012C44.6945 36.204 44.6945 36.5161 44.5026 36.7081C44.3106 36.9001 43.9984 36.9001 43.8065 36.7081L42.7567 35.6583C42.0093 34.9109 40.8034 34.8729 40.0124 35.5733C40.0103 35.5754 40.0082 35.5768 40.0061 35.5789C39.9801 35.6007 39.9513 35.6281 39.9203 35.659L39.1947 36.3847C39.1026 36.4768 38.9774 36.5288 38.8467 36.5288H37.2625C37.1416 36.5288 37.0284 36.5759 36.9426 36.6617L33.7785 39.8258C33.6928 39.9115 33.6456 40.0247 33.6456 40.1457V43.9179C33.6456 44.0487 33.5936 44.1739 33.5015 44.266L31.8414 45.9261L36.8955 50.9801C37.0874 51.1721 37.0874 51.4843 36.8955 51.6762C36.7999 51.7726 36.674 51.8204 36.5474 51.8204Z" fill="white"/>
<path d="M35.4416 55.0515C35.3158 55.0515 35.1899 55.0037 35.0936 54.9074L27.4106 47.225C27.2186 47.0331 27.2186 46.7209 27.4106 46.5289L29.5797 44.3598C29.7717 44.1678 30.0838 44.1678 30.2758 44.3598L37.9588 52.0428C38.1508 52.2348 38.1508 52.547 37.9588 52.7389L35.7897 54.9081C35.6934 55.0037 35.5675 55.0515 35.4416 55.0515ZM28.4547 46.877L35.4416 53.8639L36.9147 52.3909L29.9278 45.4039L28.4547 46.877Z" fill="white"/>
<path d="M28.6709 30.4971C28.5415 30.4971 28.4143 30.4443 28.3229 30.3529C28.2314 30.2615 28.1787 30.135 28.1787 30.0049C28.1787 29.8755 28.2314 29.7482 28.3229 29.6568C28.4143 29.5654 28.5415 29.5127 28.6709 29.5127C28.801 29.5127 28.9275 29.5654 29.0189 29.6568C29.1104 29.7482 29.1631 29.8755 29.1631 30.0049C29.1631 30.1343 29.1104 30.2615 29.0189 30.3529C28.9275 30.4443 28.801 30.4971 28.6709 30.4971Z" fill="white"/>
<path d="M32.3748 37.3551C32.249 37.3551 32.1231 37.3073 32.0268 37.211L30.4975 35.6817C30.3055 35.4897 30.3055 35.1775 30.4975 34.9856L36.3967 29.0863C36.5886 28.8944 36.9008 28.8944 37.0928 29.0863L38.6221 30.6156C38.814 30.8076 38.814 31.1198 38.6221 31.3117L32.7229 37.211C32.6265 37.3073 32.5007 37.3551 32.3748 37.3551ZM31.5409 35.3336L32.3741 36.1668L37.5772 30.9637L36.744 30.1305L31.5409 35.3336Z" fill="white"/>
<path d="M35.5906 37.8087C35.4696 37.8087 35.3487 37.7644 35.2545 37.6758L33.3596 35.9004C33.2625 35.809 33.2063 35.6825 33.2042 35.5496C33.2021 35.416 33.2541 35.288 33.3483 35.1938L36.6052 31.9369C36.7971 31.745 37.1093 31.745 37.3013 31.9369C37.4932 32.1289 37.4932 32.4411 37.3013 32.633L34.4037 35.5306L35.58 36.6324L36.2473 35.9651C36.5187 35.6937 36.8794 35.544 37.2633 35.544H38.6442L38.9993 35.1889L37.7246 33.8276C37.5389 33.6294 37.5488 33.3179 37.7471 33.1322C37.9453 32.9466 38.2568 32.9565 38.4424 33.1547L40.0463 34.8676C40.1384 34.966 40.1862 35.0968 40.1785 35.2311C40.1707 35.3654 40.1089 35.4905 40.0069 35.5777C39.9809 35.5995 39.9521 35.6269 39.9211 35.6579L39.1955 36.3835C39.1034 36.4756 38.9782 36.5276 38.8474 36.5276H37.2633C37.1424 36.5276 37.0292 36.5747 36.9434 36.6605L35.9393 37.6646C35.8423 37.7609 35.7164 37.8087 35.5906 37.8087Z" fill="white"/>
<path d="M48.6352 50.0237C48.5143 50.0237 48.3934 49.9794 48.2991 49.8908L46.0506 47.785C45.8523 47.5994 45.8417 47.2879 46.0281 47.0896C46.2137 46.8913 46.5252 46.8808 46.7234 47.0671L48.6247 48.8474L50.258 47.2148L47.5109 44.2806L45.3313 46.4603C45.1393 46.6523 44.8271 46.6523 44.6352 46.4603C44.4432 46.2683 44.4432 45.9562 44.6352 45.7642L47.1742 43.2252C47.2684 43.131 47.3963 43.0797 47.5299 43.0811C47.6635 43.0832 47.7901 43.1394 47.8808 43.2365L51.3008 46.8899C51.4822 47.084 51.4773 47.3863 51.2895 47.5741L48.9826 49.8803C48.8877 49.9759 48.7618 50.0237 48.6352 50.0237Z" fill="white"/>
<path d="M26.6201 40.0498C26.4893 40.0498 26.3641 39.9978 26.2713 39.905L26.2558 39.8895C24.0044 37.6381 24.0044 33.9748 26.2566 31.7234L27.2219 30.758C27.4139 30.5661 27.7261 30.5661 27.918 30.758C28.11 30.95 28.11 31.2622 27.918 31.4541L26.9526 32.4195C25.1969 34.1752 25.0915 36.9652 26.6362 38.8454L37.6134 27.8682L34.5583 24.8131L30.1912 29.1802C29.9993 29.3722 29.6871 29.3722 29.4951 29.1802C29.3032 28.9883 29.3032 28.6761 29.4951 28.4841L34.2103 23.769C34.4023 23.577 34.7144 23.577 34.9064 23.769L38.6576 27.5201C38.7497 27.6122 38.8017 27.7374 38.8017 27.8682C38.8017 27.999 38.7497 28.1241 38.6576 28.2162L26.9681 39.9057C26.876 39.9978 26.7508 40.0498 26.6201 40.0498Z" fill="white"/>
<path d="M39.9855 30.0354C39.8547 30.0354 39.7296 29.9834 39.6374 29.8913L32.7426 22.9964C32.5506 22.8045 32.5506 22.4923 32.7426 22.3004L33.3733 21.6696C34.3352 20.7078 35.9003 20.7078 36.8622 21.6696L40.9642 25.7717C41.4304 26.2378 41.687 26.8573 41.687 27.5161C41.687 28.175 41.4304 28.7944 40.9642 29.2606L40.3335 29.8913C40.2414 29.9834 40.1163 30.0354 39.9855 30.0354ZM33.7867 22.6484L39.9855 28.8471L40.2681 28.5645C40.548 28.2846 40.7027 27.912 40.7027 27.5161C40.7027 27.1203 40.5487 26.7476 40.2681 26.4678L36.1661 22.3657C35.5881 21.7878 34.6474 21.7878 34.0694 22.3657L33.7867 22.6484Z" fill="white"/>
</svg>
