<svg width="20" height="20" viewBox="0 0 20 20" fill="none" xmlns="http://www.w3.org/2000/svg">
<g clip-path="url(#clip0_741_12)">
<path fill-rule="evenodd" clip-rule="evenodd" d="M15.3203 18.9826C15.5887 19.1726 15.9345 19.2201 16.2428 19.1035C16.5512 18.986 16.7778 18.7226 16.8462 18.4035C17.5703 15.0001 19.327 6.38596 19.9862 3.29012C20.0362 3.05679 19.9528 2.81429 19.7695 2.65846C19.5862 2.50262 19.332 2.45762 19.1053 2.54179C15.6112 3.83512 4.85033 7.87262 0.451998 9.50012C0.172832 9.60346 -0.00883512 9.87179 0.000331545 10.166C0.0103315 10.461 0.208665 10.7168 0.494498 10.8026C2.467 11.3926 5.05616 12.2135 5.05616 12.2135C5.05616 12.2135 6.26617 15.8676 6.897 17.726C6.97617 17.9593 7.15866 18.1426 7.3995 18.206C7.6395 18.2685 7.89616 18.2026 8.07533 18.0335C9.08867 17.0768 10.6553 15.5976 10.6553 15.5976C10.6553 15.5976 13.632 17.7801 15.3203 18.9826ZM6.14533 11.7518L7.5445 16.3668L7.85533 13.4443C7.85533 13.4443 13.2612 8.56846 16.3428 5.78929C16.4328 5.70762 16.4453 5.57096 16.3703 5.47512C16.2962 5.37929 16.1595 5.35679 16.057 5.42179C12.4853 7.70262 6.14533 11.7518 6.14533 11.7518Z" fill="white"/>
</g>
<defs>
<clipPath id="clip0_741_12">
<rect width="20" height="20" fill="white"/>
</clipPath>
</defs>
</svg>
