<svg width="16" height="17" viewBox="0 0 16 17" fill="none" xmlns="http://www.w3.org/2000/svg">
<path d="M0 16.5L1.12467 12.3913C0.430667 11.1887 0.066 9.82533 0.0666667 8.42733C0.0686667 4.05667 3.62533 0.5 7.99533 0.5C10.116 0.500667 12.1067 1.32667 13.604 2.82533C15.1007 4.324 15.9247 6.316 15.924 8.43467C15.922 12.806 12.3653 16.3627 7.99533 16.3627C6.66867 16.362 5.36133 16.0293 4.20333 15.3973L0 16.5ZM4.398 13.962C5.51533 14.6253 6.582 15.0227 7.99267 15.0233C11.6247 15.0233 14.5833 12.0673 14.5853 8.43333C14.5867 4.792 11.642 1.84 7.998 1.83867C4.36333 1.83867 1.40667 4.79467 1.40533 8.428C1.40467 9.91133 1.83933 11.022 2.56933 12.184L1.90333 14.616L4.398 13.962ZM11.9893 10.3193C11.94 10.2367 11.808 10.1873 11.6093 10.088C11.4113 9.98867 10.4373 9.50933 10.2553 9.44333C10.074 9.37733 9.942 9.344 9.80933 9.54267C9.67733 9.74067 9.29733 10.1873 9.182 10.3193C9.06667 10.4513 8.95067 10.468 8.75267 10.3687C8.55467 10.2693 7.916 10.0607 7.15933 9.38533C6.57067 8.86 6.17267 8.21133 6.05733 8.01267C5.942 7.81467 6.04533 7.70733 6.144 7.60867C6.23333 7.52 6.342 7.37733 6.44133 7.26133C6.542 7.14667 6.57467 7.064 6.64133 6.93133C6.70733 6.79933 6.67467 6.68333 6.62467 6.584C6.57467 6.48533 6.17867 5.51 6.014 5.11333C5.85267 4.72733 5.68933 4.77933 5.568 4.77333L5.188 4.76667C5.056 4.76667 4.84133 4.816 4.66 5.01467C4.47867 5.21333 3.96667 5.692 3.96667 6.66733C3.96667 7.64267 4.67667 8.58467 4.77533 8.71667C4.87467 8.84867 6.172 10.85 8.15933 11.708C8.632 11.912 9.00133 12.034 9.28867 12.1253C9.76333 12.276 10.1953 12.2547 10.5367 12.204C10.9173 12.1473 11.7087 11.7247 11.874 11.262C12.0393 10.7987 12.0393 10.402 11.9893 10.3193Z" fill="white"/>
</svg>
