<svg width="48" height="62" viewBox="0 0 48 62" fill="none" xmlns="http://www.w3.org/2000/svg">
<path d="M24.457 52.5332C23.9733 52.5332 23.582 52.142 23.582 51.6582C23.582 51.1745 23.9733 50.7832 24.457 50.7832C27.9133 50.7832 31.162 49.437 33.607 46.992L40.587 40.012C41.977 38.622 41.977 36.3607 40.587 34.9707L38.3383 32.722C37.997 32.3807 37.997 31.8257 38.3383 31.4845C38.6795 31.1432 39.2345 31.1432 39.5758 31.4845L41.8245 33.7332C43.897 35.8057 43.897 39.177 41.8245 41.2495L34.8445 48.2295C32.0683 51.0045 28.3795 52.5332 24.457 52.5332Z" fill="#254152"/>
<path d="M36.8447 30.8654C36.6147 30.8654 36.3885 30.7717 36.226 30.6092C36.186 30.5692 36.1485 30.5242 36.1172 30.4767C36.086 30.4292 36.0585 30.3779 36.0372 30.3254C36.0147 30.2729 35.9985 30.2179 35.9872 30.1617C35.976 30.1054 35.9697 30.0479 35.9697 29.9904C35.9697 29.9329 35.976 29.8754 35.9872 29.8192C35.9985 29.7642 36.0147 29.7092 36.0372 29.6554C36.0585 29.6029 36.086 29.5517 36.1172 29.5042C36.1485 29.4567 36.186 29.4117 36.226 29.3717C36.4297 29.1692 36.731 29.0754 37.016 29.1329C37.071 29.1442 37.1272 29.1604 37.1797 29.1829C37.2322 29.2042 37.2835 29.2317 37.331 29.2629C37.3785 29.2954 37.4235 29.3317 37.4635 29.3717C37.5035 29.4117 37.5397 29.4567 37.5722 29.5042C37.6035 29.5517 37.631 29.6029 37.6522 29.6554C37.6747 29.7092 37.691 29.7642 37.7022 29.8192C37.7135 29.8754 37.7197 29.9329 37.7197 29.9904C37.7197 30.0479 37.7135 30.1054 37.7022 30.1617C37.691 30.2179 37.6747 30.2729 37.6522 30.3254C37.631 30.3779 37.6035 30.4292 37.5722 30.4767C37.5397 30.5242 37.5035 30.5692 37.4635 30.6092C37.4235 30.6492 37.3785 30.6867 37.331 30.7179C37.2835 30.7492 37.2322 30.7767 37.1797 30.7979C37.1272 30.8204 37.071 30.8367 37.016 30.8479C36.9597 30.8592 36.9022 30.8654 36.8447 30.8654Z" fill="#254152"/>
<path d="M21.4169 55.5703C21.1932 55.5703 20.9694 55.4853 20.7982 55.3141L11.1944 45.7103C10.8532 45.3691 10.8532 44.8141 11.1944 44.4728L14.5082 41.159V34.8141C14.5082 34.1316 14.7744 33.4903 15.2569 33.0078L20.8819 27.3828C21.3644 26.9003 22.0056 26.6341 22.6881 26.6341H25.1431L26.1769 25.6003C26.2631 25.5141 26.3431 25.4391 26.4231 25.3703C28.5206 23.5191 31.7119 23.6203 33.6931 25.6003L35.5594 27.4666C35.9006 27.8078 35.9006 28.3628 35.5594 28.7041C35.2181 29.0453 34.6631 29.0453 34.3219 28.7041L32.4556 26.8378C31.1269 25.5091 28.9831 25.4416 27.5769 26.6866C27.5731 26.6903 27.5694 26.6928 27.5656 26.6966C27.5194 26.7353 27.4681 26.7841 27.4131 26.8391L26.1231 28.1291C25.9594 28.2928 25.7369 28.3853 25.5044 28.3853H22.6881C22.4731 28.3853 22.2719 28.4691 22.1194 28.6216L16.4944 34.2466C16.3419 34.3991 16.2582 34.6003 16.2582 34.8153V41.5216C16.2582 41.7541 16.1657 41.9766 16.0019 42.1403L13.0507 45.0916L22.0356 54.0765C22.3769 54.4178 22.3769 54.9728 22.0356 55.3141C21.8656 55.4853 21.6419 55.5703 21.4169 55.5703Z" fill="#254152"/>
<path d="M19.4504 61.3151C19.2267 61.3151 19.0029 61.2301 18.8317 61.0589L5.17293 47.4014C4.83168 47.0602 4.83168 46.5052 5.17293 46.1639L9.02918 42.3077C9.37043 41.9664 9.92542 41.9664 10.2667 42.3077L23.9254 55.9664C24.2667 56.3077 24.2667 56.8627 23.9254 57.2039L20.0692 61.0602C19.8979 61.2302 19.6742 61.3151 19.4504 61.3151ZM7.02918 46.7827L19.4504 59.2039L22.0692 56.5852L9.64792 44.1639L7.02918 46.7827Z" fill="#254152"/>
<path d="M7.41504 17.6631C7.18504 17.6631 6.95879 17.5693 6.79629 17.4068C6.63379 17.2443 6.54004 17.0193 6.54004 16.7881C6.54004 16.5581 6.63379 16.3318 6.79629 16.1693C6.95879 16.0068 7.18504 15.9131 7.41504 15.9131C7.64629 15.9131 7.87129 16.0068 8.03379 16.1693C8.19629 16.3318 8.29004 16.5581 8.29004 16.7881C8.29004 17.0181 8.19629 17.2443 8.03379 17.4068C7.87129 17.5693 7.64629 17.6631 7.41504 17.6631Z" fill="#254152"/>
<path d="M13.9987 29.8544C13.775 29.8544 13.5512 29.7694 13.38 29.5981L10.6612 26.8794C10.32 26.5381 10.32 25.9831 10.6612 25.6419L21.1487 15.1544C21.4899 14.8131 22.0449 14.8131 22.3862 15.1544L25.1049 17.8731C25.4462 18.2144 25.4462 18.7694 25.1049 19.1106L14.6175 29.5981C14.4462 29.7694 14.2225 29.8544 13.9987 29.8544ZM12.5162 26.2606L13.9975 27.7419L23.2474 18.4919L21.7662 17.0106L12.5162 26.2606Z" fill="#254152"/>
<path d="M19.7162 30.6615C19.5012 30.6615 19.2862 30.5827 19.1187 30.4252L15.75 27.269C15.5775 27.1065 15.4775 26.8815 15.4737 26.6452C15.47 26.4077 15.5625 26.1802 15.73 26.0127L21.52 20.2227C21.8612 19.8815 22.4162 19.8815 22.7575 20.2227C23.0987 20.564 23.0987 21.119 22.7575 21.4602L17.6062 26.6115L19.6975 28.5702L20.8837 27.384C21.3662 26.9015 22.0075 26.6352 22.69 26.6352H25.145L25.7762 26.004L23.51 23.584C23.18 23.2315 23.1975 22.6777 23.55 22.3477C23.9025 22.0177 24.4562 22.0352 24.7862 22.3877L27.6375 25.4327C27.8012 25.6077 27.8862 25.8402 27.8725 26.079C27.8587 26.3177 27.7487 26.5402 27.5675 26.6952C27.5212 26.734 27.47 26.7827 27.415 26.8377L26.125 28.1277C25.9612 28.2915 25.7387 28.384 25.5062 28.384H22.69C22.475 28.384 22.2737 28.4677 22.1212 28.6202L20.3362 30.4052C20.1637 30.5765 19.94 30.6615 19.7162 30.6615Z" fill="#254152"/>
<path d="M42.9072 52.3767C42.6922 52.3767 42.4772 52.298 42.3097 52.1405L38.3122 48.3967C37.9597 48.0667 37.941 47.513 38.2722 47.1605C38.6022 46.808 39.156 46.7892 39.5085 47.1205L42.8884 50.2855L45.7922 47.383L40.9084 42.1667L37.0335 46.0417C36.6922 46.383 36.1372 46.383 35.796 46.0417C35.4547 45.7005 35.4547 45.1455 35.796 44.8042L40.3097 40.2905C40.4772 40.123 40.7047 40.0317 40.9422 40.0342C41.1797 40.038 41.4047 40.138 41.5659 40.3105L47.6459 46.8055C47.9684 47.1505 47.9597 47.688 47.6259 48.0217L43.5247 52.1217C43.3559 52.2917 43.1322 52.3767 42.9072 52.3767Z" fill="#254152"/>
<path d="M3.76836 34.645C3.53586 34.645 3.31336 34.5525 3.14836 34.3875L3.12086 34.36C-0.881641 30.3575 -0.88164 23.845 3.12211 19.8425L4.83836 18.1262C5.17961 17.785 5.73461 17.785 6.07586 18.1262C6.41711 18.4675 6.41711 19.0225 6.07586 19.3638L4.35961 21.08C1.23836 24.2013 1.05086 29.1612 3.79711 32.5037L23.3121 12.9888L17.8809 7.5575L10.1171 15.3213C9.77586 15.6625 9.22086 15.6625 8.87961 15.3213C8.53836 14.98 8.53836 14.425 8.87961 14.0837L17.2621 5.70125C17.6034 5.36 18.1584 5.36 18.4996 5.70125L25.1684 12.37C25.3321 12.5338 25.4246 12.7563 25.4246 12.9888C25.4246 13.2213 25.3321 13.4437 25.1684 13.6075L4.38711 34.3887C4.22336 34.5525 4.00086 34.645 3.76836 34.645Z" fill="#254152"/>
<path d="M27.5287 16.8415C27.2962 16.8415 27.0737 16.749 26.9099 16.5853L14.6524 4.32777C14.3112 3.98652 14.3112 3.43152 14.6524 3.09027L15.7737 1.96902C17.4837 0.259024 20.2662 0.259024 21.9762 1.96902L29.2687 9.26152C30.0974 10.0903 30.5537 11.1915 30.5537 12.3628C30.5537 13.534 30.0974 14.6353 29.2687 15.464L28.1474 16.5853C27.9837 16.749 27.7612 16.8415 27.5287 16.8415ZM16.5087 3.70902L27.5287 14.729L28.0312 14.2265C28.5287 13.729 28.8037 13.0665 28.8037 12.3628C28.8037 11.659 28.5299 10.9965 28.0312 10.499L20.7387 3.20652C19.7112 2.17902 18.0387 2.17902 17.0112 3.20652L16.5087 3.70902Z" fill="#254152"/>
</svg>
