<svg width="52" height="62" viewBox="0 0 52 62" fill="none" xmlns="http://www.w3.org/2000/svg">
<path d="M14.959 61.3129C14.9015 61.3129 14.844 61.3066 14.7877 61.2954C14.7327 61.2841 14.6777 61.2679 14.624 61.2454C14.5715 61.2241 14.5202 61.1966 14.474 61.1654C14.4252 61.1329 14.3802 61.0966 14.3402 61.0566C14.1777 60.8941 14.084 60.6679 14.084 60.4379C14.084 60.3804 14.0902 60.3229 14.1015 60.2666C14.1127 60.2116 14.129 60.1566 14.1515 60.1029C14.1727 60.0504 14.2002 59.9991 14.2315 59.9516C14.264 59.9041 14.3002 59.8591 14.3402 59.8191C14.3802 59.7791 14.4252 59.7416 14.4727 59.7103C14.5202 59.6791 14.5715 59.6516 14.624 59.6304C14.6765 59.6079 14.7327 59.5916 14.7877 59.5804C14.9002 59.5579 15.0177 59.5579 15.1302 59.5804C15.1865 59.5916 15.2415 59.6079 15.294 59.6304C15.3465 59.6516 15.3977 59.6791 15.4452 59.7103C15.4927 59.7416 15.5377 59.7791 15.5777 59.8191C15.6177 59.8591 15.6552 59.9041 15.6865 59.9516C15.7177 59.9991 15.7452 60.0504 15.7665 60.1029C15.789 60.1566 15.8052 60.2116 15.8165 60.2666C15.8277 60.3229 15.834 60.3804 15.834 60.4379C15.834 60.6679 15.7402 60.8941 15.5777 61.0566C15.5377 61.0966 15.4927 61.1329 15.4452 61.1654C15.3977 61.1966 15.3465 61.2241 15.294 61.2454C15.2415 61.2679 15.1865 61.2841 15.1302 61.2954C15.074 61.3066 15.0165 61.3129 14.959 61.3129Z" fill="#254152"/>
<path d="M50.9128 23.3467H48.1416C47.6579 23.3467 47.2666 22.9554 47.2666 22.4717C47.2666 21.9879 47.6579 21.5967 48.1416 21.5967H50.9128C51.3966 21.5967 51.7878 21.9879 51.7878 22.4717C51.7878 22.9554 51.3966 23.3467 50.9128 23.3467Z" fill="#254152"/>
<path d="M50.9129 29.7529H48.1416C47.6579 29.7529 47.2666 29.3617 47.2666 28.8779C47.2666 28.3942 47.6579 28.0029 48.1416 28.0029H50.9129C51.3966 28.0029 51.7879 28.3942 51.7879 28.8779C51.7879 29.3617 51.3966 29.7529 50.9129 29.7529Z" fill="#254152"/>
<path d="M50.9129 36.1592H48.1416C47.6579 36.1592 47.2666 35.7679 47.2666 35.2842C47.2666 34.8004 47.6579 34.4092 48.1416 34.4092H50.9129C51.3966 34.4092 51.7879 34.8004 51.7879 35.2842C51.7879 35.7679 51.3966 36.1592 50.9129 36.1592Z" fill="#254152"/>
<path d="M50.9129 42.5645H48.1416C47.6579 42.5645 47.2666 42.1732 47.2666 41.6895C47.2666 41.2057 47.6579 40.8145 48.1416 40.8145H50.9129C51.3966 40.8145 51.7879 41.2057 51.7879 41.6895C51.7879 42.1732 51.3966 42.5645 50.9129 42.5645Z" fill="#254152"/>
<path d="M50.9129 48.9707H48.1416C47.6579 48.9707 47.2666 48.5795 47.2666 48.0957C47.2666 47.612 47.6579 47.2207 48.1416 47.2207H50.9129C51.3966 47.2207 51.7879 47.612 51.7879 48.0957C51.7879 48.5795 51.3966 48.9707 50.9129 48.9707Z" fill="#254152"/>
<path d="M50.9129 55.377H48.1416C47.6579 55.377 47.2666 54.9857 47.2666 54.502C47.2666 54.0182 47.6579 53.627 48.1416 53.627H50.9129C51.3966 53.627 51.7879 54.0182 51.7879 54.502C51.7879 54.9857 51.3966 55.377 50.9129 55.377Z" fill="#254152"/>
<path d="M41.3843 51.7837C40.9006 51.7837 40.5093 51.3925 40.5093 50.9087V37.125L27.6018 50.0337H36.9331C37.4168 50.0337 37.8081 50.425 37.8081 50.9087C37.8081 51.3925 37.4168 51.7837 36.9331 51.7837H25.4893C25.1356 51.7837 24.8168 51.57 24.6806 51.2437C24.5456 50.9162 24.6206 50.54 24.8706 50.29L40.7656 34.395C41.0156 34.145 41.3918 34.07 41.7193 34.205C42.0468 34.34 42.2593 34.66 42.2593 35.0137V50.9087C42.2593 51.3912 41.8681 51.7837 41.3843 51.7837Z" fill="#254152"/>
<path d="M50.9132 61.3126H17.8157C17.3319 61.3126 16.9407 60.9213 16.9407 60.4376C16.9407 59.9538 17.3319 59.5626 17.8157 59.5626H50.0382V14.1201L4.59693 59.5626H11.9594C12.4432 59.5626 12.8344 59.9538 12.8344 60.4376C12.8344 60.9213 12.4432 61.3126 11.9594 61.3126H2.48443C2.13068 61.3126 1.81193 61.0988 1.67568 60.7726C1.54068 60.4451 1.61568 60.0688 1.86568 59.8188L50.2945 11.3901C50.5445 11.1401 50.9207 11.0651 51.2482 11.2001C51.5757 11.3351 51.7882 11.6551 51.7882 12.0088V60.4376C51.7882 60.9213 51.397 61.3126 50.9132 61.3126Z" fill="#254152"/>
<path d="M41.753 12.7026C41.5667 12.7026 41.3792 12.6439 41.2217 12.5226C40.8917 12.2701 40.7867 11.8226 40.9617 11.4526C41.0692 11.1926 41.2955 10.9989 41.5705 10.9351C41.8655 10.8664 42.1755 10.9539 42.3892 11.1689L42.4005 11.1801C42.7417 11.5214 42.7417 12.0764 42.4005 12.4176L42.3717 12.4464C42.2017 12.6164 41.978 12.7026 41.753 12.7026Z" fill="#254152"/>
<path d="M6.64309 46.6692C5.71309 46.6692 4.78434 46.3155 4.07684 45.608L1.34934 42.8805C-0.065664 41.4655 -0.065664 39.163 1.34934 37.748L3.77934 35.318C4.12058 34.9767 4.67559 34.9767 5.01684 35.318C5.35809 35.6592 5.35809 36.2142 5.01684 36.5555L2.58684 38.9855C1.85434 39.718 1.85434 40.9105 2.58684 41.643L5.31433 44.3705C6.04683 45.103 7.23934 45.103 7.97183 44.3705L39.0506 13.2917C38.5931 13.1342 38.1656 12.873 37.8043 12.513C37.1693 11.878 36.8231 11.0005 36.8543 10.103C35.9581 10.1342 35.0806 9.788 34.4443 9.153C34.0831 8.79175 33.8218 8.36425 33.6643 7.90675L7.47434 34.098C7.13309 34.4392 6.57809 34.4392 6.23684 34.098C5.89559 33.7567 5.89559 33.2017 6.23684 32.8605L34.0931 5.00425C34.4068 4.6905 34.9043 4.66175 35.2518 4.9355C35.6006 5.20925 35.6893 5.7005 35.4581 6.078C35.0981 6.66925 35.1906 7.4255 35.6818 7.91675C35.9818 8.21675 36.3806 8.37425 36.8043 8.3555C37.2843 8.3355 37.7543 8.51925 38.0956 8.8605C38.4381 9.20175 38.6231 9.673 38.6031 10.1542C38.5856 10.5792 38.7406 10.9767 39.0418 11.278C39.5318 11.768 40.2868 11.8605 40.8781 11.503C41.2568 11.2742 41.7468 11.3642 42.0193 11.7117C42.2918 12.0605 42.2618 12.5567 41.9493 12.8705L9.20933 45.608C8.50183 46.3155 7.57309 46.6692 6.64309 46.6692Z" fill="#254152"/>
<path d="M7.70965 40.1233C7.4859 40.1233 7.26215 40.0383 7.0909 39.8671C6.74965 39.5258 6.74965 38.9708 7.0909 38.6296L31.9909 13.7296C32.3322 13.3883 32.8872 13.3883 33.2284 13.7296C33.5697 14.0708 33.5697 14.6258 33.2284 14.9671L8.3284 39.8671C8.1584 40.0371 7.93465 40.1233 7.70965 40.1233Z" fill="#254152"/>
<path d="M34.6924 13.1409C34.6361 13.1409 34.5786 13.1347 34.5224 13.1234C34.4661 13.1122 34.4111 13.0959 34.3586 13.0734C34.3049 13.0522 34.2549 13.0247 34.2074 12.9934C34.1586 12.9609 34.1149 12.9247 34.0736 12.8847C33.9111 12.7209 33.8174 12.4959 33.8174 12.2659C33.8174 12.2084 33.8236 12.1509 33.8349 12.0947C33.8461 12.0384 33.8636 11.9834 33.8849 11.9309C33.9061 11.8784 33.9336 11.8272 33.9649 11.7797C33.9974 11.7322 34.0336 11.6872 34.0736 11.6472C34.1149 11.6072 34.1586 11.5697 34.2074 11.5384C34.2549 11.5072 34.3049 11.4797 34.3586 11.4584C34.4111 11.4359 34.4661 11.4197 34.5224 11.4084C34.8061 11.3509 35.1086 11.4434 35.3111 11.6472C35.3524 11.6872 35.3886 11.7322 35.4199 11.7797C35.4524 11.8272 35.4786 11.8784 35.5011 11.9309C35.5224 11.9834 35.5399 12.0384 35.5511 12.0947C35.5624 12.1509 35.5674 12.2084 35.5674 12.2659C35.5674 12.4959 35.4749 12.7209 35.3111 12.8847C35.1486 13.0472 34.9236 13.1409 34.6924 13.1409Z" fill="#254152"/>
<path d="M6.64347 46.7459C5.76097 46.7459 4.87847 46.4097 4.20597 45.7384L1.21973 42.7522C-0.124023 41.4084 -0.124023 39.2222 1.21973 37.8784L3.77972 35.3184C4.12097 34.9772 4.67597 34.9772 5.01722 35.3184L11.6397 41.9409C11.981 42.2822 11.981 42.8372 11.6397 43.1784L9.07972 45.7384C8.40847 46.4097 7.52597 46.7459 6.64347 46.7459ZM5.44347 44.4997C6.10472 45.1609 7.18097 45.1609 7.84222 44.4997L9.78347 42.5584L4.39847 37.1734L2.45723 39.1147C1.79598 39.7759 1.79598 40.8522 2.45723 41.5134L5.44347 44.4997Z" fill="#254152"/>
<path d="M40.1009 13.4672C39.2609 13.4672 38.4321 13.141 37.8046 12.5135C37.1696 11.8785 36.8234 11.001 36.8546 10.1035C35.9571 10.1335 35.0809 9.78848 34.4446 9.15348C33.3809 8.08973 33.1834 6.45098 33.9634 5.16723C34.0084 5.09348 34.0546 5.02598 34.1021 4.95848C34.2659 4.72973 34.4846 4.54598 34.7371 4.42098C34.7721 4.40348 34.8084 4.38723 34.8446 4.37348C34.9434 4.33223 35.0459 4.29973 35.1534 4.27848L45.1009 0.738475C45.4184 0.624725 45.7747 0.704725 46.0134 0.944725C46.2522 1.18473 46.3322 1.53848 46.2197 1.85723L42.6772 11.8085C42.6559 11.911 42.6247 12.011 42.5859 12.106C42.5697 12.1485 42.5522 12.1897 42.5309 12.2285C42.4084 12.4747 42.2284 12.6897 42.0097 12.8497C41.9372 12.901 41.8684 12.9472 41.7922 12.9947C41.2647 13.3122 40.6809 13.4672 40.1009 13.4672ZM36.8759 8.35348C37.3296 8.35348 37.7721 8.53598 38.0959 8.85973C38.4384 9.20098 38.6234 9.67223 38.6034 10.1535C38.5859 10.5785 38.7409 10.976 39.0422 11.2772C39.5322 11.7672 40.2872 11.8597 40.8784 11.5022C40.9034 11.486 40.9347 11.466 40.9672 11.4447C40.9759 11.391 40.9884 11.3372 41.0072 11.286L43.9547 3.00598L35.6734 5.95348C35.6221 5.97223 35.5696 5.98473 35.5159 5.99348C35.4959 6.02223 35.4759 6.05223 35.4571 6.08348C35.0996 6.67098 35.1909 7.42723 35.6821 7.91848C35.9821 8.21848 36.3821 8.37473 36.8046 8.35723C36.8284 8.35348 36.8521 8.35348 36.8759 8.35348Z" fill="#254152"/>
<path d="M43.5785 7.54332C43.3547 7.54332 43.131 7.45832 42.9597 7.28707L39.671 3.99832C39.3297 3.65707 39.3297 3.10207 39.671 2.76082C40.0122 2.41957 40.5672 2.41957 40.9085 2.76082L44.1972 6.04957C44.5385 6.39082 44.5385 6.94582 44.1972 7.28707C44.026 7.45832 43.8022 7.54332 43.5785 7.54332Z" fill="#254152"/>
</svg>
