<svg width="76" height="76" viewBox="0 0 76 76" fill="none" xmlns="http://www.w3.org/2000/svg">
<rect width="76" height="76" rx="20" fill="#254152"/>
<path fill-rule="evenodd" clip-rule="evenodd" d="M48.5 39.5C48.464 39.5 48.4302 39.4918 48.3942 39.4895C47.987 42.5473 46.352 45.2143 44 46.9843V52.25C44 53.9068 42.6567 55.25 41 55.25H33.5C31.8432 55.25 30.5 53.9068 30.5 52.25V46.9843C27.7722 44.9315 26 41.6765 26 38C26 34.3228 27.7722 31.0678 30.5 29.0158V23.75C30.5 22.0933 31.8432 20.75 33.5 20.75H41C42.6567 20.75 44 22.0933 44 23.75V29.0158C46.3527 30.7858 47.987 33.4528 48.3942 36.5105C48.4302 36.5083 48.464 36.5 48.5 36.5C49.328 36.5 50 37.172 50 38C50 38.828 49.328 39.5 48.5 39.5ZM32 52.25C32 53.078 32.672 53.75 33.5 53.75H41C41.828 53.75 42.5 53.078 42.5 52.25V47.9465C40.9317 48.7753 39.1467 49.25 37.25 49.25C35.3532 49.25 33.5682 48.7753 32 47.9465V52.25ZM42.5 23.75C42.5 22.922 41.828 22.25 41 22.25H33.5C32.672 22.25 32 22.922 32 23.75V28.0535C33.5682 27.224 35.3532 26.75 37.25 26.75C39.1467 26.75 40.9317 27.224 42.5 28.0535V23.75ZM37.25 28.25C31.865 28.25 27.5 32.615 27.5 38C27.5 43.385 31.865 47.75 37.25 47.75C42.635 47.75 47 43.385 47 38C47 32.615 42.635 28.25 37.25 28.25ZM38 40.112V44.75C38 45.1648 37.6647 45.5 37.25 45.5C36.8352 45.5 36.5 45.1648 36.5 44.75V40.112C35.6285 39.8023 35 38.978 35 38C35 37.6468 35.0885 37.3175 35.234 37.019L32.9645 34.7495C32.6787 34.4638 32.6787 33.9995 32.9645 33.7138C33.251 33.428 33.7145 33.428 34.0002 33.7138L36.2697 35.9833C36.5675 35.8385 36.8967 35.75 37.25 35.75C38.4927 35.75 39.5 36.758 39.5 38C39.5 38.9788 38.8722 39.8023 38 40.112ZM37.25 37.25C36.8352 37.25 36.5 37.5853 36.5 38C36.5 38.4148 36.8352 38.75 37.25 38.75C37.6647 38.75 38 38.4148 38 38C38 37.5853 37.6647 37.25 37.25 37.25Z" fill="white"/>
</svg>
