<svg width="76" height="76" viewBox="0 0 76 76" fill="none" xmlns="http://www.w3.org/2000/svg">
<rect width="76" height="76" rx="20" fill="#254152"/>
<path fill-rule="evenodd" clip-rule="evenodd" d="M47.744 35.3623V38.3773L45.1302 39.8855L43.6227 42.497H43.2395C43.2395 42.4978 43.2402 42.4993 43.2402 42.5V53.75C43.2402 53.753 43.2387 53.7553 43.2387 53.7583C43.2417 53.9488 43.172 54.1408 43.0265 54.2863C42.881 54.4318 42.689 54.5015 42.4977 54.4985C42.4955 54.4985 42.4932 54.5 42.4902 54.5C42.2502 54.5 42.0455 54.38 41.909 54.2038L37.9902 50.285L34.0715 54.2038C33.935 54.38 33.731 54.5 33.4902 54.5C33.4872 54.5 33.485 54.4985 33.4827 54.4985C33.2915 54.5015 33.0995 54.4318 32.954 54.2863C32.8092 54.1408 32.7387 53.9488 32.7417 53.7583C32.7417 53.7553 32.7402 53.753 32.7402 53.75V42.5C32.7402 42.4993 32.741 42.4978 32.741 42.497H32.3607L30.8517 39.8855L28.2387 38.3773V35.3623L26.7305 32.7508L28.2387 30.1385V27.1213L30.8517 25.6115L32.3607 23.0023H35.3795L37.9895 21.4933L40.6025 23.0023H43.6212L45.1287 25.6115L47.7425 27.1213V30.1378L49.25 32.7508L47.744 35.3623ZM34.2402 42.5V51.9643L37.3827 48.8218C37.4067 48.7865 37.4225 48.746 37.454 48.7138C37.6017 48.5668 37.7967 48.4985 37.9902 48.503C38.1837 48.4985 38.3787 48.5668 38.5265 48.7138C38.558 48.746 38.573 48.7865 38.5977 48.8218L41.7402 51.9643V42.5C41.7402 42.4993 41.741 42.4978 41.741 42.497H40.6032L37.9902 44.0068L35.3802 42.497H34.2395C34.2395 42.4978 34.2402 42.4993 34.2402 42.5ZM46.2402 30.539V27.9868L44.0292 26.7095L42.755 24.5023H40.2005L37.9917 23.2265L35.7845 24.5023H33.23L31.9542 26.7088L29.7425 27.986V30.539L28.4667 32.7508L29.7425 34.961V37.511L31.9542 38.7875L33.23 40.9963H35.7837L37.991 42.272L40.1997 40.9963H42.7535L44.0277 38.7875L46.2395 37.511V34.9618L47.5145 32.7508L46.2402 30.539Z" fill="white"/>
</svg>
