<svg width="76" height="76" viewBox="0 0 76 76" fill="none" xmlns="http://www.w3.org/2000/svg">
<rect width="76" height="76" rx="20" fill="#254152"/>
<path fill-rule="evenodd" clip-rule="evenodd" d="M55.25 50C55.25 52.0715 53.5715 53.75 51.5 53.75H24.5C22.4285 53.75 20.75 52.0715 20.75 50V28.25C20.75 26.5933 22.0933 25.25 23.75 25.25H38.8783L44.9525 23.0495C45.3373 22.9093 45.7633 23.108 45.9035 23.4913L46.5433 25.25H49.25C50.9068 25.25 52.25 26.5933 52.25 28.25V29.75C53.9068 29.75 55.25 31.0933 55.25 32.75V50ZM23.75 26.75C22.922 26.75 22.25 27.422 22.25 28.25C22.25 29.078 22.922 29.75 23.75 29.75H26.3338H26.4755C26.4853 29.7463 26.4913 29.738 26.501 29.7343L34.7375 26.75H23.75ZM45.5585 26.8858L44.762 24.6928H44.7613L43.223 25.25H43.2253L39.0898 26.75H39.0823L30.803 29.75H46.5995L45.5585 26.8858ZM50.75 28.25C50.75 27.422 50.078 26.75 49.25 26.75H47.0878L48.1783 29.75H50.75V28.25ZM52.25 31.25H23.75C23.201 31.25 22.6925 31.0918 22.25 30.8338V50C22.25 51.2428 23.258 52.25 24.5 52.25H51.5C52.7428 52.25 53.75 51.2428 53.75 50V44.75H50.75C49.0933 44.75 47.75 43.4068 47.75 41.75C47.75 40.0933 49.0933 38.75 50.75 38.75H53.75V32.75C53.75 31.922 53.078 31.25 52.25 31.25ZM53.75 43.25V40.25H50.75C49.922 40.25 49.25 40.922 49.25 41.75C49.25 42.578 49.922 43.25 50.75 43.25H53.75ZM50.75 41H52.25V42.5H50.75V41Z" fill="white"/>
</svg>
