<svg width="76" height="76" viewBox="0 0 76 76" fill="none" xmlns="http://www.w3.org/2000/svg">
<rect width="76" height="76" rx="20" fill="#254152"/>
<path fill-rule="evenodd" clip-rule="evenodd" d="M47 33.5C47 37.6925 44.1297 41.204 40.25 42.2045V50H44.75C45.1647 50 45.5 50.336 45.5 50.75C45.5 51.1647 45.1647 51.5 44.75 51.5H31.25C30.8352 51.5 30.5 51.1647 30.5 50.75C30.5 50.336 30.8352 50 31.25 50H35.75V42.2045C31.8702 41.204 29 37.6925 29 33.5C26.1005 33.5 23.75 31.1495 23.75 28.25V26.75C23.75 26.336 24.0853 26 24.5 26H29V25.25C29 24.0072 27.9928 23 26.75 23C26.3352 23 26 22.664 26 22.25C26 21.836 26.3352 21.5 26.75 21.5H49.25C49.6647 21.5 50 21.836 50 22.25C50 22.664 49.6647 23 49.25 23C48.0072 23 47 24.0072 47 25.25V26H51.5C51.9147 26 52.25 26.336 52.25 26.75V28.25C52.25 31.1495 49.8995 33.5 47 33.5ZM37.25 50H38.75V42.4617C38.5025 42.4827 38.2535 42.5 38 42.5C37.7465 42.5 37.4975 42.4827 37.25 42.4617V50ZM25.25 27.5V28.25C25.25 30.3215 26.9285 32 29 32V27.5H25.25ZM29.7335 23C30.2075 23.6285 30.5 24.4017 30.5 25.25V33.5C30.5 37.6422 33.8577 41 38 41C42.1415 41 45.5 37.6422 45.5 33.5V25.25C45.5 24.4017 45.7925 23.6285 46.2665 23H29.7335ZM50.75 27.5H47V32C49.0715 32 50.75 30.3215 50.75 28.25V27.5ZM29 53H47C47.4147 53 47.75 53.336 47.75 53.75C47.75 54.1647 47.4147 54.5 47 54.5H29C28.5852 54.5 28.25 54.1647 28.25 53.75C28.25 53.336 28.5852 53 29 53Z" fill="white"/>
</svg>
