<svg width="24" height="24" viewBox="0 0 24 24" fill="none" xmlns="http://www.w3.org/2000/svg">
<path d="M12.0001 0.592468C18.4444 0.592468 23.6685 5.81663 23.6685 12.261C23.6685 18.7053 18.4444 23.9294 12.0001 23.9294C5.5557 23.9294 0.331543 18.7053 0.331543 12.261C0.331543 5.81663 5.5557 0.592468 12.0001 0.592468ZM12.0001 2.34247C6.5222 2.34247 2.08154 6.78313 2.08154 12.261C2.08154 17.7388 6.5222 22.1794 12.0001 22.1794C17.4778 22.1794 21.9185 17.7388 21.9185 12.261C21.9185 6.78313 17.4778 2.34247 12.0001 2.34247ZM11.9957 10.5098C12.4387 10.5096 12.8051 10.8385 12.8633 11.2655L12.8713 11.3842L12.8755 17.8028C12.8759 18.286 12.4843 18.678 12.0011 18.6783C11.5581 18.6786 11.1918 18.3497 11.1336 17.9227L11.1255 17.8039L11.1213 11.3854C11.121 10.9022 11.5125 10.5102 11.9957 10.5098ZM12.0005 6.42909C12.6441 6.42909 13.1657 6.95073 13.1657 7.59419C13.1657 8.23767 12.6441 8.75931 12.0005 8.75931C11.3571 8.75931 10.8354 8.23767 10.8354 7.59419C10.8354 6.95073 11.3571 6.42909 12.0005 6.42909Z" fill="#2CA6DE"/>
</svg>
