<svg width="14" height="14" viewBox="0 0 14 14" fill="none" xmlns="http://www.w3.org/2000/svg">
<path d="M7.128 13.054C6.228 13.054 5.394 12.892 4.626 12.568C3.858 12.244 3.186 11.794 2.61 11.218C2.034 10.63 1.584 9.952 1.26 9.184C0.948 8.416 0.792 7.588 0.792 6.7C0.792 5.812 0.954 4.984 1.278 4.216C1.602 3.448 2.052 2.776 2.628 2.2C3.204 1.612 3.876 1.156 4.644 0.831999C5.424 0.508 6.264 0.346 7.164 0.346C8.064 0.346 8.898 0.508 9.666 0.831999C10.446 1.144 11.118 1.588 11.682 2.164C12.258 2.74 12.702 3.412 13.014 4.18C13.338 4.936 13.5 5.764 13.5 6.664C13.5 7.564 13.338 8.404 13.014 9.184C12.69 9.952 12.234 10.63 11.646 11.218C11.07 11.794 10.398 12.244 9.63 12.568C8.862 12.892 8.028 13.054 7.128 13.054ZM7.11 12.064C7.878 12.064 8.586 11.926 9.234 11.65C9.882 11.374 10.446 10.996 10.926 10.516C11.418 10.024 11.796 9.448 12.06 8.788C12.324 8.128 12.456 7.42 12.456 6.664C12.456 5.908 12.324 5.206 12.06 4.558C11.796 3.91 11.424 3.346 10.944 2.866C10.476 2.386 9.918 2.014 9.27 1.75C8.634 1.474 7.932 1.336 7.164 1.336C6.396 1.336 5.682 1.474 5.022 1.75C4.374 2.014 3.81 2.392 3.33 2.884C2.862 3.376 2.49 3.946 2.214 4.594C1.95 5.242 1.818 5.944 1.818 6.7C1.818 7.456 1.95 8.158 2.214 8.806C2.478 9.454 2.85 10.024 3.33 10.516C3.81 11.008 4.374 11.392 5.022 11.668C5.67 11.932 6.366 12.064 7.11 12.064ZM7.326 10.372C6.594 10.372 5.94 10.216 5.364 9.904C4.788 9.592 4.338 9.16 4.014 8.608C3.69 8.056 3.528 7.42 3.528 6.7C3.528 5.98 3.69 5.344 4.014 4.792C4.338 4.24 4.788 3.808 5.364 3.496C5.94 3.184 6.594 3.028 7.326 3.028C8.01 3.028 8.61 3.172 9.126 3.46C9.654 3.736 10.056 4.114 10.332 4.594L9.018 5.458C8.814 5.146 8.568 4.918 8.28 4.774C7.992 4.63 7.668 4.558 7.308 4.558C6.924 4.558 6.576 4.648 6.264 4.828C5.964 4.996 5.718 5.242 5.526 5.566C5.346 5.878 5.256 6.256 5.256 6.7C5.256 7.144 5.346 7.528 5.526 7.852C5.718 8.164 5.964 8.41 6.264 8.59C6.576 8.758 6.924 8.842 7.308 8.842C7.668 8.842 7.992 8.77 8.28 8.626C8.568 8.482 8.814 8.254 9.018 7.942L10.332 8.77C10.056 9.262 9.654 9.652 9.126 9.94C8.61 10.228 8.01 10.372 7.326 10.372Z" fill="white"/>
</svg>
