<svg width="76" height="76" viewBox="0 0 76 76" fill="none" xmlns="http://www.w3.org/2000/svg">
<rect width="76" height="76" rx="20" fill="#254152"/>
<path d="M31.79 55.0504C31.7577 55.0504 31.7254 55.0469 31.6937 55.0406C31.6628 55.0343 31.6318 55.0251 31.6016 55.0125C31.5721 55.0005 31.5432 54.9851 31.5172 54.9675C31.4898 54.9492 31.4645 54.9288 31.442 54.9063C31.3506 54.8149 31.2979 54.6876 31.2979 54.5582C31.2979 54.5259 31.3014 54.4936 31.3077 54.4619C31.314 54.431 31.3232 54.4 31.3358 54.3698C31.3478 54.3403 31.3632 54.3114 31.3808 54.2847C31.3991 54.258 31.4195 54.2327 31.442 54.2102C31.4645 54.1877 31.4898 54.1666 31.5165 54.149C31.5432 54.1314 31.5721 54.116 31.6016 54.104C31.6311 54.0914 31.6628 54.0822 31.6937 54.0759C31.757 54.0632 31.8231 54.0632 31.8864 54.0759C31.918 54.0822 31.9489 54.0914 31.9785 54.104C32.008 54.116 32.0368 54.1314 32.0636 54.149C32.0903 54.1666 32.1156 54.1877 32.1381 54.2102C32.1606 54.2327 32.1817 54.258 32.1993 54.2847C32.2168 54.3114 32.2323 54.3403 32.2443 54.3698C32.2569 54.4 32.2661 54.431 32.2724 54.4619C32.2787 54.4936 32.2822 54.5259 32.2822 54.5582C32.2822 54.6876 32.2295 54.8149 32.1381 54.9063C32.1156 54.9288 32.0903 54.9492 32.0636 54.9675C32.0368 54.9851 32.008 55.0005 31.9785 55.0125C31.9489 55.0251 31.918 55.0343 31.8864 55.0406C31.8547 55.0469 31.8224 55.0504 31.79 55.0504Z" fill="white"/>
<path d="M52.0139 33.6943H50.4551C50.183 33.6943 49.9629 33.4743 49.9629 33.2021C49.9629 32.93 50.183 32.71 50.4551 32.71H52.0139C52.286 32.71 52.5061 32.93 52.5061 33.2021C52.5061 33.4743 52.286 33.6943 52.0139 33.6943Z" fill="white"/>
<path d="M52.0139 37.2979H50.4551C50.183 37.2979 49.9629 37.0778 49.9629 36.8057C49.9629 36.5336 50.183 36.3135 50.4551 36.3135H52.0139C52.286 36.3135 52.5061 36.5336 52.5061 36.8057C52.5061 37.0778 52.286 37.2979 52.0139 37.2979Z" fill="white"/>
<path d="M52.0139 40.9014H50.4551C50.183 40.9014 49.9629 40.6813 49.9629 40.4092C49.9629 40.1371 50.183 39.917 50.4551 39.917H52.0139C52.286 39.917 52.5061 40.1371 52.5061 40.4092C52.5061 40.6813 52.286 40.9014 52.0139 40.9014Z" fill="white"/>
<path d="M52.0139 44.5039H50.4551C50.183 44.5039 49.9629 44.2838 49.9629 44.0117C49.9629 43.7396 50.183 43.5195 50.4551 43.5195H52.0139C52.286 43.5195 52.5061 43.7396 52.5061 44.0117C52.5061 44.2838 52.286 44.5039 52.0139 44.5039Z" fill="white"/>
<path d="M52.0139 48.1074H50.4551C50.183 48.1074 49.9629 47.8873 49.9629 47.6152C49.9629 47.3431 50.183 47.123 50.4551 47.123H52.0139C52.286 47.123 52.5061 47.3431 52.5061 47.6152C52.5061 47.8873 52.286 48.1074 52.0139 48.1074Z" fill="white"/>
<path d="M52.0139 51.7109H50.4551C50.183 51.7109 49.9629 51.4909 49.9629 51.2188C49.9629 50.9466 50.183 50.7266 50.4551 50.7266H52.0139C52.286 50.7266 52.5061 50.9466 52.5061 51.2188C52.5061 51.4909 52.286 51.7109 52.0139 51.7109Z" fill="white"/>
<path d="M46.6539 49.691C46.3817 49.691 46.1617 49.4709 46.1617 49.1988V41.4454L38.9012 48.7066H44.15C44.4221 48.7066 44.6422 48.9267 44.6422 49.1988C44.6422 49.4709 44.4221 49.691 44.15 49.691H37.7129C37.5139 49.691 37.3346 49.5707 37.258 49.3872C37.1821 49.203 37.2242 48.9913 37.3649 48.8507L46.3058 39.9098C46.4464 39.7692 46.6581 39.727 46.8423 39.8029C47.0265 39.8789 47.146 40.0589 47.146 40.2578V49.1988C47.146 49.4702 46.926 49.691 46.6539 49.691Z" fill="white"/>
<path d="M52.0137 55.0508H33.3963C33.1242 55.0508 32.9041 54.8307 32.9041 54.5586C32.9041 54.2865 33.1242 54.0664 33.3963 54.0664H51.5215V28.505L25.9608 54.0664H30.1022C30.3743 54.0664 30.5944 54.2865 30.5944 54.5586C30.5944 54.8307 30.3743 55.0508 30.1022 55.0508H24.7725C24.5735 55.0508 24.3942 54.9305 24.3176 54.747C24.2416 54.5628 24.2838 54.3512 24.4244 54.2105L51.6656 26.9694C51.8063 26.8287 52.0179 26.7866 52.2021 26.8625C52.3863 26.9384 52.5059 27.1184 52.5059 27.3174V54.5586C52.5059 54.8307 52.2858 55.0508 52.0137 55.0508Z" fill="white"/>
<path d="M46.8614 27.7074C46.7566 27.7074 46.6511 27.6743 46.5625 27.6061C46.3769 27.4641 46.3178 27.2124 46.4163 27.0042C46.4767 26.858 46.604 26.749 46.7587 26.7131C46.9246 26.6745 47.099 26.7237 47.2192 26.8446L47.2256 26.8509C47.4175 27.0429 47.4175 27.3551 47.2256 27.547L47.2094 27.5632C47.1138 27.6588 46.9879 27.7074 46.8614 27.7074Z" fill="white"/>
<path d="M27.1118 46.8141C26.5887 46.8141 26.0663 46.6151 25.6683 46.2171L24.1341 44.6829C23.3381 43.887 23.3381 42.5918 24.1341 41.7959L25.5009 40.429C25.6929 40.237 26.0051 40.237 26.197 40.429C26.389 40.6209 26.389 40.9331 26.197 41.1251L24.8302 42.492C24.4181 42.904 24.4181 43.5748 24.8302 43.9868L26.3644 45.521C26.7764 45.9331 27.4472 45.9331 27.8592 45.521L45.341 28.0392C45.0837 27.9506 44.8432 27.8037 44.64 27.6012C44.2828 27.244 44.088 26.7504 44.1056 26.2456C43.6015 26.2631 43.1079 26.0684 42.75 25.7112C42.5468 25.508 42.3998 25.2675 42.3113 25.0102L27.5794 39.7427C27.3874 39.9347 27.0752 39.9347 26.8833 39.7427C26.6913 39.5508 26.6913 39.2386 26.8833 39.0466L42.5524 23.3775C42.7289 23.201 43.0087 23.1849 43.2042 23.3388C43.4004 23.4928 43.4503 23.7692 43.3202 23.9815C43.1177 24.3141 43.1698 24.7395 43.4461 25.0158C43.6148 25.1845 43.8391 25.2731 44.0775 25.2626C44.3475 25.2513 44.6119 25.3547 44.8038 25.5467C44.9965 25.7386 45.1005 26.0037 45.0893 26.2744C45.0795 26.5134 45.1666 26.737 45.3361 26.9065C45.6117 27.1821 46.0364 27.2342 46.369 27.0331C46.582 26.9044 46.8577 26.955 47.0109 27.1505C47.1642 27.3467 47.1473 27.6258 46.9716 27.8023L28.5553 46.2171C28.1573 46.6151 27.6349 46.8141 27.1118 46.8141Z" fill="white"/>
<path d="M27.7117 43.132C27.5859 43.132 27.46 43.0842 27.3637 42.9879C27.1717 42.796 27.1717 42.4838 27.3637 42.2918L41.3699 28.2856C41.5619 28.0936 41.8741 28.0936 42.066 28.2856C42.258 28.4775 42.258 28.7897 42.066 28.9817L28.0598 42.9879C27.9642 43.0835 27.8383 43.132 27.7117 43.132Z" fill="white"/>
<path d="M42.8896 27.9547C42.858 27.9547 42.8257 27.9512 42.794 27.9448C42.7624 27.9385 42.7314 27.9294 42.7019 27.9167C42.6717 27.9048 42.6436 27.8893 42.6168 27.8717C42.5894 27.8534 42.5648 27.833 42.5416 27.8105C42.4502 27.7184 42.3975 27.5919 42.3975 27.4625C42.3975 27.4302 42.401 27.3978 42.4073 27.3662C42.4136 27.3345 42.4235 27.3036 42.4354 27.2741C42.4474 27.2445 42.4629 27.2157 42.4804 27.189C42.4987 27.1623 42.5191 27.137 42.5416 27.1145C42.5648 27.092 42.5894 27.0709 42.6168 27.0533C42.6436 27.0357 42.6717 27.0202 42.7019 27.0083C42.7314 26.9956 42.7624 26.9865 42.794 26.9802C42.9536 26.9478 43.1238 26.9998 43.2377 27.1145C43.2609 27.137 43.2813 27.1623 43.2989 27.189C43.3171 27.2157 43.3319 27.2445 43.3446 27.2741C43.3565 27.3036 43.3664 27.3345 43.3727 27.3662C43.379 27.3978 43.3818 27.4302 43.3818 27.4625C43.3818 27.5919 43.3298 27.7184 43.2377 27.8105C43.1463 27.902 43.0197 27.9547 42.8896 27.9547Z" fill="white"/>
<path d="M27.1119 46.8571C26.6155 46.8571 26.1191 46.6679 25.7408 46.2904L24.061 44.6106C23.3052 43.8547 23.3052 42.625 24.061 41.8691L25.501 40.4291C25.693 40.2372 26.0052 40.2372 26.1971 40.4291L29.9223 44.1543C30.1142 44.3462 30.1142 44.6584 29.9223 44.8504L28.4823 46.2904C28.1047 46.6679 27.6083 46.8571 27.1119 46.8571ZM26.4369 45.5936C26.8088 45.9655 27.4142 45.9655 27.7862 45.5936L28.8781 44.5016L25.8491 41.4726L24.7571 42.5645C24.3852 42.9365 24.3852 43.5418 24.7571 43.9138L26.4369 45.5936Z" fill="white"/>
<path d="M45.9319 28.1378C45.4594 28.1378 44.9933 27.9543 44.6403 27.6013C44.2831 27.2441 44.0883 26.7506 44.1059 26.2457C43.6011 26.2626 43.1082 26.0685 42.7503 25.7113C42.1519 25.113 42.0408 24.1912 42.4796 23.4691C42.5049 23.4276 42.5309 23.3896 42.5576 23.3516C42.6497 23.223 42.7728 23.1196 42.9148 23.0493C42.9345 23.0395 42.9549 23.0303 42.9753 23.0226C43.0308 22.9994 43.0885 22.9811 43.149 22.9691L48.7444 20.9779C48.923 20.9139 49.1234 20.9589 49.2577 21.0939C49.392 21.2289 49.437 21.4279 49.3737 21.6072L47.3811 27.2048C47.3691 27.2624 47.3516 27.3187 47.3298 27.3721C47.3206 27.396 47.3108 27.4192 47.2988 27.441C47.2299 27.5795 47.1287 27.7005 47.0056 27.7905C46.9648 27.8193 46.9262 27.8453 46.8833 27.872C46.5865 28.0506 46.2582 28.1378 45.9319 28.1378ZM44.1179 25.2613C44.3731 25.2613 44.622 25.364 44.8041 25.5461C44.9968 25.7381 45.1008 26.0031 45.0896 26.2738C45.0797 26.5129 45.1669 26.7365 45.3364 26.9059C45.612 27.1816 46.0367 27.2336 46.3693 27.0325C46.3833 27.0234 46.4009 27.0121 46.4192 27.0002C46.4241 26.9699 46.4312 26.9397 46.4417 26.9109L48.0997 22.2534L43.4415 23.9113C43.4126 23.9219 43.3831 23.9289 43.3529 23.9338C43.3416 23.95 43.3304 23.9669 43.3198 23.9845C43.1187 24.3149 43.1701 24.7403 43.4464 25.0166C43.6151 25.1854 43.8401 25.2733 44.0778 25.2634C44.0912 25.2613 44.1045 25.2613 44.1179 25.2613Z" fill="white"/>
<path d="M47.8878 24.8058C47.762 24.8058 47.6361 24.758 47.5398 24.6617L45.6899 22.8117C45.4979 22.6198 45.4979 22.3076 45.6899 22.1156C45.8818 21.9237 46.194 21.9237 46.386 22.1156L48.2359 23.9656C48.4278 24.1575 48.4278 24.4697 48.2359 24.6617C48.1395 24.758 48.0137 24.8058 47.8878 24.8058Z" fill="white"/>
</svg>
