<svg width="76" height="76" viewBox="0 0 76 76" fill="none" xmlns="http://www.w3.org/2000/svg">
<rect width="76" height="76" rx="20" fill="#254152"/>
<path d="M28.5148 48.5006C28.2427 48.5006 28.0227 48.2805 28.0227 48.0084C28.0227 46.3293 26.6572 44.9638 24.9781 44.9638C23.2991 44.9638 21.9336 46.3293 21.9336 48.0084C21.9336 48.2805 21.7135 48.5006 21.4414 48.5006C21.1693 48.5006 20.9492 48.2805 20.9492 48.0084V27.9918C20.9492 25.7699 22.7563 23.9629 24.9781 23.9629C27.2 23.9629 29.007 25.7699 29.007 27.9918V48.0084C29.007 48.2805 28.787 48.5006 28.5148 48.5006ZM24.9781 43.9795C26.1924 43.9795 27.2837 44.5195 28.0227 45.3724V27.9918C28.0227 26.3127 26.6572 24.9473 24.9781 24.9473C23.2991 24.9473 21.9336 26.3127 21.9336 27.9918V45.3724C22.6726 44.5195 23.7638 43.9795 24.9781 43.9795Z" fill="white"/>
<path d="M54.5586 52.0377C54.2865 52.0377 54.0664 51.8176 54.0664 51.5455V28.4844H29.007V48.0088C29.007 48.2809 28.787 48.5009 28.5148 48.5009C28.2427 48.5009 28.0227 48.2809 28.0227 48.0088C28.0227 46.3297 26.6572 44.9642 24.9781 44.9642C23.2991 44.9642 21.9336 46.3297 21.9336 48.0088C21.9336 49.6878 23.2991 51.0533 24.9781 51.0533H51.744C52.0161 51.0533 52.2362 51.2734 52.2362 51.5455C52.2362 51.8176 52.0161 52.0377 51.744 52.0377H24.9781C22.757 52.0377 20.9492 50.2306 20.9492 48.0088C20.9492 45.7869 22.757 43.9798 24.9781 43.9798C26.1924 43.9798 27.2837 44.5198 28.0227 45.3727V27.9922C28.0227 27.7201 28.2427 27.5 28.5148 27.5H54.5586C54.8307 27.5 55.0508 27.7201 55.0508 27.9922V51.5455C55.0508 51.8176 54.8307 52.0377 54.5586 52.0377Z" fill="white"/>
<path d="M35.9824 36.5712H31.1709C30.8988 36.5712 30.6787 36.3512 30.6787 36.0791V31.2676C30.6787 30.9955 30.8988 30.7754 31.1709 30.7754H35.9824C36.2545 30.7754 36.4746 30.9955 36.4746 31.2676V36.0791C36.4746 36.3512 36.2538 36.5712 35.9824 36.5712ZM31.6631 35.5869H35.4902V31.7598H31.6631V35.5869Z" fill="white"/>
<path d="M40.147 48.5279H36.5027C36.2306 48.5279 36.0105 48.3078 36.0105 48.0357C36.0105 47.7636 36.2306 47.5435 36.5027 47.5435H39.6548V39.5518H31.6631V47.5435H32.3198C32.5919 47.5435 32.812 47.7636 32.812 48.0357C32.812 48.3078 32.5919 48.5279 32.3198 48.5279H31.1709C30.8988 48.5279 30.6787 48.3078 30.6787 48.0357V39.0596C30.6787 38.7875 30.8988 38.5674 31.1709 38.5674H40.147C40.4191 38.5674 40.6392 38.7875 40.6392 39.0596V48.0357C40.6392 48.3071 40.4191 48.5279 40.147 48.5279Z" fill="white"/>
<path d="M34.1777 48.5283C34.0477 48.5283 33.9211 48.4756 33.8297 48.3842C33.8072 48.361 33.7861 48.3364 33.7685 48.3089C33.7509 48.2822 33.7355 48.2541 33.7228 48.2239C33.7109 48.1943 33.7017 48.1634 33.6954 48.1318C33.6884 48.1001 33.6855 48.0678 33.6855 48.0361C33.6855 48.0038 33.6884 47.9714 33.6954 47.9398C33.7017 47.9082 33.7109 47.8772 33.7228 47.8477C33.7355 47.8182 33.7509 47.7893 33.7685 47.7626C33.7861 47.7359 33.8072 47.7106 33.8297 47.6881C33.9211 47.596 34.0477 47.5439 34.1777 47.5439C34.3071 47.5439 34.4337 47.596 34.5258 47.6881C34.5483 47.7106 34.5687 47.7359 34.587 47.7626C34.6045 47.7893 34.62 47.8182 34.632 47.8477C34.6446 47.8772 34.6538 47.9082 34.6601 47.9398C34.6664 47.9714 34.6699 48.0038 34.6699 48.0361C34.6699 48.0678 34.6664 48.1001 34.6601 48.1318C34.6538 48.1634 34.6446 48.1943 34.632 48.2239C34.62 48.2541 34.6045 48.2822 34.587 48.3089C34.5687 48.3364 34.5483 48.361 34.5258 48.3842C34.4337 48.4756 34.3071 48.5283 34.1777 48.5283Z" fill="white"/>
<path d="M50.7027 36.5712H38C37.7279 36.5712 37.5078 36.3512 37.5078 36.0791V31.2676C37.5078 30.9955 37.7279 30.7754 38 30.7754H44.2156C44.4877 30.7754 44.7078 30.9955 44.7078 31.2676C44.7078 31.5397 44.4877 31.7598 44.2156 31.7598H38.4922V35.5869H50.2105V31.7598H47.938C47.6659 31.7598 47.4458 31.5397 47.4458 31.2676C47.4458 30.9955 47.6659 30.7754 47.938 30.7754H50.7027C50.9748 30.7754 51.1948 30.9955 51.1948 31.2676V36.0791C51.1948 36.3512 50.9748 36.5712 50.7027 36.5712Z" fill="white"/>
<path d="M45.9636 31.7609C45.9313 31.7609 45.8989 31.7574 45.8673 31.7511C45.8356 31.7447 45.8047 31.7356 45.7752 31.7229C45.7456 31.711 45.7168 31.6955 45.6901 31.6779C45.6634 31.6597 45.638 31.6393 45.6155 31.6168C45.5923 31.5936 45.572 31.569 45.5544 31.5415C45.5361 31.5148 45.5213 31.4867 45.5087 31.4572C45.4967 31.4269 45.4869 31.396 45.4805 31.3651C45.4742 31.3327 45.4707 31.3004 45.4707 31.2687C45.4707 31.2364 45.4742 31.204 45.4805 31.1724C45.4869 31.1408 45.4967 31.1098 45.5087 31.0803C45.5213 31.0508 45.5361 31.0219 45.5544 30.9952C45.572 30.9685 45.5923 30.9432 45.6155 30.9207C45.638 30.8982 45.6634 30.8771 45.6901 30.8595C45.7168 30.8419 45.7456 30.8265 45.7752 30.8138C45.8047 30.8019 45.8356 30.7927 45.8673 30.7864C45.9305 30.773 45.9959 30.773 46.0592 30.7864C46.0909 30.7927 46.1218 30.8019 46.1513 30.8138C46.1809 30.8265 46.2097 30.8419 46.2364 30.8595C46.2631 30.8771 46.2884 30.8982 46.3109 30.9207C46.3341 30.9432 46.3545 30.9685 46.3728 30.9952C46.3904 31.0219 46.4052 31.0508 46.4178 31.0803C46.4298 31.1098 46.4396 31.1408 46.4459 31.1724C46.4523 31.204 46.4551 31.2364 46.4551 31.2687C46.4551 31.3004 46.4523 31.3327 46.4459 31.3651C46.4396 31.396 46.4298 31.4269 46.4178 31.4572C46.4052 31.4867 46.3904 31.5148 46.3728 31.5415C46.3545 31.569 46.3341 31.5936 46.3109 31.6168C46.2884 31.6393 46.2631 31.6597 46.2364 31.6779C46.2097 31.6955 46.1809 31.711 46.1513 31.7229C46.1218 31.7356 46.0909 31.7447 46.0592 31.7511C46.0276 31.7574 45.9952 31.7609 45.9636 31.7609Z" fill="white"/>
<path d="M45.8912 48.7606H43.1982C42.9261 48.7606 42.7061 48.5405 42.7061 48.2684V39.0596C42.7061 38.7875 42.9261 38.5674 43.1982 38.5674H45.8912C46.1633 38.5674 46.3834 38.7875 46.3834 39.0596V48.2691C46.3834 48.5405 46.1633 48.7606 45.8912 48.7606ZM43.6911 47.7762H45.3997V39.5518H43.6911V47.7762Z" fill="white"/>
<path d="M50.7027 48.7606H48.0098C47.7377 48.7606 47.5176 48.5405 47.5176 48.2684V39.0596C47.5176 38.7875 47.7377 38.5674 48.0098 38.5674H50.7027C50.9748 38.5674 51.1949 38.7875 51.1949 39.0596V48.2691C51.1949 48.5405 50.9748 48.7606 50.7027 48.7606ZM48.502 47.7762H50.2105V39.5518H48.502V47.7762Z" fill="white"/>
<path d="M24.7676 42.1393C24.4955 42.1393 24.2754 41.9192 24.2754 41.6471V28.5303C24.2754 28.2582 24.4955 28.0381 24.7676 28.0381C25.0397 28.0381 25.2598 28.2582 25.2598 28.5303V41.6471C25.2598 41.9192 25.039 42.1393 24.7676 42.1393Z" fill="white"/>
<path d="M24.7676 27.4697C24.6375 27.4697 24.5109 27.417 24.4195 27.3256C24.3281 27.2335 24.2754 27.1069 24.2754 26.9775C24.2754 26.8474 24.3281 26.7209 24.4195 26.6295C24.5334 26.5149 24.7036 26.4628 24.8639 26.4945C24.8948 26.5008 24.9258 26.5106 24.956 26.5226C24.9855 26.5353 25.0137 26.55 25.0404 26.5683C25.0678 26.5859 25.0931 26.6063 25.1156 26.6295C25.207 26.7209 25.2598 26.8474 25.2598 26.9775C25.2598 27.1069 25.207 27.2335 25.1156 27.3256C25.0931 27.3481 25.0678 27.3685 25.0404 27.3867C25.0137 27.4043 24.9855 27.4198 24.956 27.4317C24.9258 27.4444 24.8948 27.4535 24.8639 27.4599C24.8323 27.4662 24.7999 27.4697 24.7676 27.4697Z" fill="white"/>
</svg>
