<svg width="76" height="76" viewBox="0 0 76 76" fill="none" xmlns="http://www.w3.org/2000/svg">
<rect width="76" height="76" rx="20" fill="#254152"/>
<path d="M31.0607 35.9061C30.9348 35.9061 30.809 35.8583 30.7126 35.7619L28.8297 33.879H25.1333C25.0026 33.879 24.8774 33.8269 24.7853 33.7348L24.0112 32.9607C23.8192 32.7687 23.8192 32.4565 24.0112 32.2646C24.2031 32.0726 24.5153 32.0726 24.7072 32.2646L25.3372 32.8946H29.0336C29.1644 32.8946 29.2895 32.9466 29.3816 33.0387L31.0607 34.7178L33.4808 32.2976C33.7551 32.0234 34.12 31.8722 34.5081 31.8722H35.9151L36.0697 31.7168C36.2617 31.5242 36.5732 31.5242 36.7658 31.7161C36.9585 31.9081 36.9585 32.2196 36.7665 32.4122L36.4677 32.7118C36.3756 32.8046 36.2497 32.8566 36.119 32.8566H34.5081C34.3829 32.8566 34.2648 32.9051 34.1769 32.9937L31.4087 35.7619C31.3124 35.8576 31.1865 35.9061 31.0607 35.9061Z" fill="white"/>
<path d="M22.0718 30.8179C21.9459 30.8179 21.82 30.7701 21.7237 30.6738L21.3665 30.3166C21.2744 30.2245 21.2224 30.0993 21.2224 29.9685L21.2217 25.1332C21.2217 25.0017 21.2744 24.8758 21.3672 24.7837L21.4439 24.7078C21.6365 24.5172 21.9466 24.5179 22.1386 24.7092L26.6111 29.1818L29.1811 26.6111L24.7085 22.1386C24.5165 21.9466 24.5165 21.6344 24.7085 21.4425L24.7851 21.3658C24.8772 21.2737 25.0024 21.2217 25.1332 21.2217L29.9678 21.2224C30.0986 21.2224 30.2238 21.2744 30.3159 21.3665L33.7338 24.7851C33.8259 24.8772 33.8779 25.0024 33.8779 25.1332V28.8295L34.8398 29.7907C35.0318 29.9826 35.0318 30.2948 34.8398 30.4868C34.6478 30.6787 34.3357 30.6787 34.1437 30.4868L33.0377 29.3807C32.9456 29.2886 32.8935 29.1635 32.8935 29.0327V25.3371L29.7639 22.2075L26.1682 22.2068L30.2252 26.2638C30.4171 26.4557 30.4171 26.7679 30.2252 26.9599L26.9592 30.2266C26.8671 30.3187 26.7419 30.3707 26.6111 30.3707C26.4803 30.3707 26.3552 30.3187 26.2631 30.2266L22.2061 26.1696L22.2068 29.7653L22.4198 29.9784C22.6118 30.1703 22.6118 30.4825 22.4198 30.6745C22.3242 30.7701 22.1976 30.8179 22.0718 30.8179Z" fill="white"/>
<path d="M23.1768 31.9229C23.0474 31.9229 22.9208 31.8701 22.8287 31.7787C22.7373 31.6873 22.6846 31.5607 22.6846 31.4307C22.6846 31.3983 22.6881 31.366 22.6944 31.3343C22.7007 31.3034 22.7099 31.2725 22.7225 31.2422C22.7345 31.2127 22.75 31.1839 22.7675 31.1571C22.7858 31.1304 22.8062 31.1051 22.8287 31.0826C22.9208 30.9912 23.0474 30.9385 23.1768 30.9385C23.3061 30.9385 23.4334 30.9912 23.5248 31.0826C23.548 31.1051 23.5684 31.1304 23.586 31.1571C23.6036 31.1839 23.619 31.2127 23.6317 31.2422C23.6436 31.2725 23.6528 31.3034 23.6591 31.3343C23.6654 31.366 23.6689 31.3983 23.6689 31.4307C23.6689 31.56 23.6162 31.6873 23.5248 31.7787C23.5023 31.8012 23.477 31.8216 23.4503 31.8399C23.4236 31.8575 23.3947 31.8729 23.3652 31.8849C23.3357 31.8975 23.3047 31.9067 23.2731 31.913C23.2414 31.9193 23.2091 31.9229 23.1768 31.9229Z" fill="white"/>
<path d="M50.8659 54.7781L46.0312 54.7774C45.9005 54.7774 45.7753 54.7254 45.6832 54.6333L42.2646 51.2147C42.1725 51.1225 42.1205 50.9974 42.1205 50.8666V47.1703L41.6887 46.7386C41.4968 46.5466 41.4968 46.2344 41.6887 46.0425C41.8807 45.8505 42.1929 45.8505 42.3848 46.0425L42.9607 46.6183C43.0528 46.7104 43.1048 46.8356 43.1048 46.9664V50.6627L46.2352 53.7923L49.8302 53.793L45.7732 49.736C45.6811 49.6439 45.6291 49.5187 45.6291 49.3879C45.6291 49.2572 45.6811 49.132 45.7732 49.0399L49.0399 45.7739C49.2326 45.5819 49.5441 45.5819 49.736 45.7739L53.7923 49.8309L53.7916 46.2351L50.662 43.1055H46.9657C46.8349 43.1055 46.7098 43.0535 46.6177 42.9614L44.6623 41.006L41.4553 44.2122C41.1698 44.4977 40.864 44.7628 40.5455 45.0004C40.3275 45.1629 40.0188 45.1179 39.8564 44.9006C39.694 44.6826 39.739 44.374 39.9562 44.2115C40.2361 44.0027 40.5061 43.7686 40.7585 43.5161L44.3009 39.9738C44.3044 39.9703 44.3079 39.9668 44.3114 39.964L44.3234 39.9527C44.5167 39.7699 44.8212 39.7741 45.0089 39.9626L47.1682 42.1218H50.8645C50.9953 42.1218 51.1205 42.1739 51.2126 42.266L54.6305 45.6839C54.7226 45.776 54.7746 45.9011 54.7746 46.0319L54.7753 50.8666C54.7753 50.9974 54.7233 51.1225 54.6312 51.2147L54.5545 51.2913C54.4624 51.3834 54.3373 51.4354 54.2065 51.4354C54.0757 51.4354 53.9505 51.3834 53.8584 51.2913L49.3859 46.8187L46.8152 49.3886L51.2885 53.8619C51.3813 53.9547 51.4327 54.0806 51.4327 54.2114C51.4327 54.3422 51.3799 54.468 51.2864 54.5601L51.2098 54.6361C51.1205 54.7268 50.996 54.7781 50.8659 54.7781Z" fill="white"/>
<path d="M35.5195 46.6709C35.2474 46.6709 35.0273 46.4508 35.0273 46.1787C35.0273 45.9066 35.2474 45.6865 35.5195 45.6865C37.1079 45.6865 38.6836 45.162 39.957 44.2107C40.2375 44.0012 40.5075 43.7677 40.7599 43.5153L44.3023 39.9729C44.3058 39.9694 44.3093 39.9659 44.3128 39.9631L44.3198 39.9568L44.7537 39.523C45.1404 39.1362 45.3534 38.6222 45.3534 38.0752C45.3534 37.5282 45.1404 37.0142 44.7537 36.6275L43.4663 35.3401C43.2743 35.1481 43.2743 34.8359 43.4663 34.644C43.6582 34.452 43.9704 34.452 44.1623 34.644L45.4498 35.9314C46.0221 36.5037 46.3378 37.2652 46.3378 38.0752C46.3378 38.8852 46.0221 39.6467 45.4498 40.219L45.011 40.6578C45.0075 40.6613 45.004 40.6641 45.0005 40.6676L44.9934 40.674L41.456 44.2114C41.1705 44.4969 40.8647 44.7619 40.5462 44.9996C39.1048 46.0775 37.3195 46.6709 35.5195 46.6709Z" fill="white"/>
<path d="M42.6064 34.276C42.4771 34.276 42.3505 34.2233 42.2584 34.1319C42.2359 34.1094 42.2155 34.084 42.1972 34.0566C42.1797 34.0299 42.1642 34.0018 42.1522 33.9722C42.1396 33.942 42.1304 33.9111 42.1241 33.8801C42.1178 33.8485 42.1143 33.8154 42.1143 33.7838C42.1143 33.6544 42.167 33.5272 42.2584 33.4357C42.373 33.3211 42.5432 33.2691 42.7028 33.3015C42.7344 33.3078 42.7654 33.3169 42.7949 33.3296C42.8244 33.3415 42.8532 33.357 42.88 33.3746C42.9067 33.3922 42.932 33.4132 42.9545 33.4357C43.0459 33.5272 43.0986 33.6537 43.0986 33.7838C43.0986 33.8154 43.0958 33.8485 43.0895 33.8801C43.0832 33.9111 43.0733 33.942 43.0614 33.9722C43.0487 34.0018 43.0339 34.0299 43.0157 34.0566C42.9981 34.084 42.9777 34.1094 42.9545 34.1319C42.932 34.1544 42.9067 34.1747 42.88 34.193C42.8532 34.2106 42.8244 34.2261 42.7949 34.238C42.7654 34.2507 42.7344 34.2598 42.7028 34.2661C42.6711 34.2725 42.6388 34.276 42.6064 34.276Z" fill="white"/>
<path d="M33.7811 48.4089C33.6553 48.4089 33.5294 48.3611 33.4331 48.2648L27.9389 42.7706C27.7469 42.5786 27.7469 42.2664 27.9389 42.0745L29.8373 40.176V36.543C29.8373 36.1605 29.9927 35.7864 30.2634 35.5157L33.4816 32.2975C33.7558 32.0233 34.1208 31.8721 34.5089 31.8721H35.9158L36.51 31.2773C36.5465 31.2414 36.5965 31.1936 36.6506 31.1465C37.8473 30.0904 39.6684 30.1474 40.7976 31.2773L41.8664 32.346C42.0583 32.538 42.0583 32.8502 41.8664 33.0421C41.6744 33.2341 41.3622 33.2341 41.1703 33.0421L40.1015 31.9734C39.3379 31.2098 38.1075 31.1718 37.2996 31.8869C37.2975 31.889 37.2954 31.8904 37.2933 31.8925C37.2679 31.9136 37.2391 31.941 37.2025 31.9769L36.4685 32.7117C36.3764 32.8045 36.2505 32.8565 36.1197 32.8565H34.5089C34.3837 32.8565 34.2656 32.905 34.1777 32.9936L30.9595 36.2118C30.8716 36.299 30.8217 36.4199 30.8217 36.543V40.3799C30.8217 40.5107 30.7697 40.6359 30.6776 40.728L28.983 42.4225L34.1292 47.5687C34.3211 47.7607 34.3211 48.0728 34.1292 48.2648C34.0329 48.3611 33.907 48.4089 33.7811 48.4089Z" fill="white"/>
<path d="M32.6554 51.6968C32.5247 51.6968 32.3995 51.6448 32.3074 51.5527L24.4936 43.7389C24.3016 43.5469 24.3016 43.2347 24.4936 43.0428L26.7 40.8363C26.8919 40.6444 27.2041 40.6444 27.3961 40.8363L35.2099 48.6502C35.4019 48.8421 35.4019 49.1543 35.2099 49.3463L33.0035 51.5527C32.9114 51.6448 32.7862 51.6968 32.6554 51.6968ZM25.5377 43.3908L32.6554 50.5085L34.1658 48.9982L27.0473 41.8805L25.5377 43.3908Z" fill="white"/>
</svg>
